<svg width="22" height="23" viewBox="0 0 22 23" fill="none" xmlns="http://www.w3.org/2000/svg">
<path d="M20.9104 0.515747C15.102 0.515747 6.89603 0.999605 2.70253 5.193C-0.993934 8.88732 -0.420783 16.6879 2.70253 19.8112C4.33065 21.4372 7.22511 22.3722 10.1479 22.3722C12.8374 22.3722 15.5488 21.5832 17.3229 19.8135C21.5141 15.6201 22.0001 7.41409 22.0001 1.60555C22.0002 1.004 21.512 0.515747 20.9104 0.515747ZM15.7776 18.2702C13.0489 20.999 6.57125 20.6001 4.24135 18.2702C1.91146 15.9403 1.51261 9.46272 4.24135 6.73397C7.62621 3.34911 14.5026 2.76289 19.812 2.69965C19.7488 8.01115 19.1625 14.8876 15.7776 18.2702Z" fill="#156963"/>
</svg>
