<svg width="22" height="23" viewBox="0 0 22 23" fill="none" xmlns="http://www.w3.org/2000/svg">
<path d="M19.2976 4.88197C15.1042 0.690715 6.89824 0.204712 1.0898 0.204712C0.488251 0.204712 0 0.692861 0 1.29441C0 7.10285 0.483858 15.3088 4.67726 19.5023C6.44708 21.2721 9.16061 22.0633 11.8501 22.0633C14.7729 22.0633 17.6695 21.1283 19.2976 19.5002C22.4209 16.3769 22.9942 8.57629 19.2976 4.88197ZM17.7567 17.9614C15.4246 20.2912 8.94922 20.6901 6.22047 17.9614C2.83562 14.5766 2.24928 7.70011 2.18604 2.39076C7.4954 2.454 14.3719 3.04022 17.7566 6.42508C20.4855 9.15383 20.0866 15.6315 17.7567 17.9614Z" fill="#156963"/>
</svg>
